<svg xmlns="http://www.w3.org/2000/svg" xmlns:xlink="http://www.w3.org/1999/xlink" width="674" zoomAndPan="magnify" viewBox="0 0 505.5 505.499968" height="674" preserveAspectRatio="xMidYMid meet" version="1.0"><defs><clipPath id="id1"><path d="M 0 0 L 505 0 L 505 505 L 0 505 Z M 0 0 " clip-rule="nonzero"/></clipPath><clipPath id="id2"><path d="M 51 164 L 467.550781 164 L 467.550781 455.199219 L 51 455.199219 Z M 51 164 " clip-rule="nonzero"/></clipPath><clipPath id="id3"><path d="M 51 39 L 467.550781 39 L 467.550781 331 L 51 331 Z M 51 39 " clip-rule="nonzero"/></clipPath><clipPath id="id4"><path d="M 425 164 L 467.550781 164 L 467.550781 331 L 425 331 Z M 425 164 " clip-rule="nonzero"/></clipPath><clipPath id="id5"><path d="M 238 288 L 280 288 L 280 455.199219 L 238 455.199219 Z M 238 288 " clip-rule="nonzero"/></clipPath></defs><g clip-path="url(#id1)"><path fill="#ffffff" d="M 505.5 454.949219 C 505.5 482.871094 482.871094 505.5 454.949219 505.5 L 50.550781 505.5 C 22.628906 505.5 0 482.871094 0 454.949219 L 0 50.550781 C 0 22.628906 22.628906 0 50.550781 0 L 454.949219 0 C 482.871094 0 505.5 22.628906 505.5 50.550781 Z M 505.5 454.949219 " fill-opacity="1" fill-rule="nonzero"/></g><g clip-path="url(#id2)"><path fill="#343a40" d="M 259.050781 455.199219 C 256.996094 455.199219 254.988281 454.902344 253.023438 454.308594 C 251.0625 453.710938 249.226562 452.84375 247.515625 451.707031 L 60.335938 326.917969 C 59.625 326.445312 58.949219 325.929688 58.300781 325.375 C 57.65625 324.816406 57.046875 324.222656 56.472656 323.59375 C 55.898438 322.960938 55.367188 322.296875 54.875 321.601562 C 54.386719 320.902344 53.9375 320.179688 53.535156 319.429688 C 53.132812 318.675781 52.777344 317.902344 52.472656 317.105469 C 52.164062 316.3125 51.90625 315.5 51.699219 314.671875 C 51.492188 313.847656 51.335938 313.007812 51.230469 312.164062 C 51.128906 311.316406 51.074219 310.46875 51.074219 309.613281 C 51.074219 308.761719 51.128906 307.914062 51.230469 307.066406 C 51.335938 306.21875 51.492188 305.382812 51.699219 304.554688 C 51.90625 303.730469 52.164062 302.917969 52.472656 302.121094 C 52.777344 301.328125 53.132812 300.554688 53.535156 299.800781 C 53.9375 299.050781 54.386719 298.324219 54.875 297.628906 C 55.367188 296.933594 55.898438 296.269531 56.472656 295.636719 C 57.046875 295.003906 57.65625 294.410156 58.300781 293.855469 C 58.949219 293.296875 59.625 292.785156 60.335938 292.3125 L 247.515625 167.523438 C 248.367188 166.957031 249.253906 166.457031 250.175781 166.019531 C 251.097656 165.585938 252.046875 165.21875 253.027344 164.925781 C 254.003906 164.628906 254.996094 164.40625 256.003906 164.257812 C 257.015625 164.105469 258.03125 164.03125 259.050781 164.03125 C 260.070312 164.03125 261.085938 164.105469 262.09375 164.257812 C 263.105469 164.40625 264.097656 164.628906 265.074219 164.925781 C 266.050781 165.21875 267 165.585938 267.925781 166.019531 C 268.847656 166.457031 269.734375 166.957031 270.582031 167.523438 L 457.765625 292.3125 C 458.472656 292.785156 459.152344 293.296875 459.796875 293.855469 C 460.445312 294.410156 461.054688 295.003906 461.625 295.636719 C 462.199219 296.269531 462.730469 296.933594 463.222656 297.628906 C 463.714844 298.324219 464.160156 299.050781 464.5625 299.800781 C 464.964844 300.554688 465.320312 301.328125 465.628906 302.121094 C 465.933594 302.917969 466.191406 303.730469 466.398438 304.554688 C 466.605469 305.382812 466.761719 306.21875 466.867188 307.066406 C 466.972656 307.914062 467.023438 308.761719 467.023438 309.613281 C 467.023438 310.46875 466.972656 311.316406 466.867188 312.164062 C 466.761719 313.007812 466.605469 313.847656 466.398438 314.671875 C 466.191406 315.5 465.933594 316.3125 465.628906 317.105469 C 465.320312 317.902344 464.964844 318.675781 464.5625 319.429688 C 464.160156 320.179688 463.714844 320.902344 463.222656 321.601562 C 462.730469 322.296875 462.199219 322.960938 461.625 323.59375 C 461.054688 324.222656 460.445312 324.816406 459.796875 325.375 C 459.152344 325.929688 458.472656 326.445312 457.765625 326.917969 L 270.582031 451.707031 C 268.875 452.84375 267.039062 453.710938 265.074219 454.308594 C 263.109375 454.902344 261.101562 455.199219 259.050781 455.199219 Z M 109.355469 309.613281 L 259.050781 409.445312 L 408.796875 309.613281 L 259.050781 209.785156 Z M 109.355469 309.613281 " fill-opacity="1" fill-rule="nonzero"/></g><g clip-path="url(#id3)"><path fill="#343a40" d="M 259.050781 330.414062 C 256.996094 330.414062 254.988281 330.113281 253.023438 329.519531 C 251.0625 328.925781 249.226562 328.058594 247.515625 326.917969 L 60.335938 202.128906 C 59.625 201.65625 58.949219 201.144531 58.300781 200.585938 C 57.65625 200.03125 57.046875 199.4375 56.472656 198.804688 C 55.898438 198.171875 55.367188 197.507812 54.875 196.8125 C 54.386719 196.117188 53.9375 195.390625 53.535156 194.640625 C 53.132812 193.886719 52.777344 193.113281 52.472656 192.320312 C 52.164062 191.523438 51.90625 190.710938 51.699219 189.886719 C 51.492188 189.058594 51.335938 188.222656 51.230469 187.375 C 51.128906 186.527344 51.074219 185.679688 51.074219 184.828125 C 51.074219 183.972656 51.128906 183.125 51.230469 182.277344 C 51.335938 181.433594 51.492188 180.59375 51.699219 179.769531 C 51.90625 178.941406 52.164062 178.128906 52.472656 177.335938 C 52.777344 176.539062 53.132812 175.765625 53.535156 175.015625 C 53.9375 174.261719 54.386719 173.539062 54.875 172.839844 C 55.367188 172.144531 55.898438 171.480469 56.472656 170.847656 C 57.046875 170.21875 57.65625 169.625 58.300781 169.066406 C 58.949219 168.511719 59.625 167.996094 60.335938 167.523438 L 247.515625 42.734375 C 248.367188 42.167969 249.253906 41.667969 250.175781 41.234375 C 251.097656 40.796875 252.046875 40.433594 253.027344 40.136719 C 254.003906 39.839844 254.996094 39.617188 256.003906 39.46875 C 257.015625 39.320312 258.03125 39.246094 259.050781 39.246094 C 260.070312 39.246094 261.085938 39.320312 262.09375 39.46875 C 263.105469 39.617188 264.097656 39.839844 265.074219 40.136719 C 266.050781 40.433594 267 40.796875 267.925781 41.234375 C 268.847656 41.667969 269.734375 42.167969 270.582031 42.734375 L 457.765625 167.523438 C 458.472656 167.996094 459.152344 168.511719 459.796875 169.066406 C 460.445312 169.625 461.054688 170.21875 461.625 170.847656 C 462.199219 171.480469 462.730469 172.144531 463.222656 172.839844 C 463.714844 173.539062 464.160156 174.261719 464.5625 175.015625 C 464.964844 175.765625 465.320312 176.539062 465.628906 177.335938 C 465.933594 178.128906 466.191406 178.941406 466.398438 179.769531 C 466.605469 180.59375 466.761719 181.433594 466.867188 182.277344 C 466.972656 183.125 467.023438 183.972656 467.023438 184.828125 C 467.023438 185.679688 466.972656 186.527344 466.867188 187.375 C 466.761719 188.222656 466.605469 189.058594 466.398438 189.886719 C 466.191406 190.710938 465.933594 191.523438 465.628906 192.320312 C 465.320312 193.113281 464.964844 193.886719 464.5625 194.640625 C 464.160156 195.390625 463.714844 196.117188 463.222656 196.8125 C 462.730469 197.507812 462.199219 198.171875 461.625 198.804688 C 461.054688 199.4375 460.445312 200.03125 459.796875 200.585938 C 459.152344 201.144531 458.472656 201.65625 457.765625 202.128906 L 270.582031 326.917969 C 268.875 328.058594 267.039062 328.925781 265.074219 329.519531 C 263.109375 330.113281 261.101562 330.414062 259.050781 330.414062 Z M 109.355469 184.828125 L 259.050781 284.65625 L 408.796875 184.828125 L 259.050781 84.996094 Z M 109.355469 184.828125 " fill-opacity="1" fill-rule="nonzero"/></g><path fill="#343a40" d="M 71.867188 330.414062 C 71.1875 330.414062 70.507812 330.378906 69.828125 330.3125 C 69.152344 330.246094 68.480469 330.144531 67.808594 330.011719 C 67.140625 329.878906 66.484375 329.714844 65.832031 329.515625 C 65.179688 329.320312 64.539062 329.089844 63.910156 328.828125 C 63.28125 328.570312 62.664062 328.277344 62.0625 327.957031 C 61.464844 327.636719 60.878906 327.285156 60.3125 326.90625 C 59.746094 326.53125 59.199219 326.125 58.675781 325.691406 C 58.148438 325.261719 57.644531 324.804688 57.160156 324.320312 C 56.679688 323.839844 56.222656 323.335938 55.789062 322.808594 C 55.359375 322.28125 54.953125 321.734375 54.574219 321.167969 C 54.195312 320.601562 53.847656 320.019531 53.527344 319.417969 C 53.203125 318.816406 52.914062 318.203125 52.652344 317.574219 C 52.390625 316.945312 52.164062 316.304688 51.964844 315.652344 C 51.769531 315 51.601562 314.339844 51.46875 313.671875 C 51.335938 313.003906 51.238281 312.332031 51.171875 311.652344 C 51.101562 310.976562 51.070312 310.296875 51.070312 309.613281 L 51.070312 184.828125 C 51.070312 184.144531 51.101562 183.464844 51.171875 182.789062 C 51.238281 182.109375 51.335938 181.4375 51.46875 180.769531 C 51.601562 180.101562 51.769531 179.441406 51.964844 178.789062 C 52.164062 178.136719 52.390625 177.496094 52.652344 176.867188 C 52.914062 176.238281 53.203125 175.625 53.527344 175.023438 C 53.847656 174.421875 54.195312 173.839844 54.574219 173.273438 C 54.953125 172.707031 55.359375 172.160156 55.789062 171.632812 C 56.222656 171.105469 56.679688 170.601562 57.160156 170.121094 C 57.644531 169.640625 58.148438 169.183594 58.675781 168.75 C 59.199219 168.316406 59.746094 167.914062 60.3125 167.535156 C 60.878906 167.15625 61.464844 166.804688 62.0625 166.484375 C 62.664062 166.164062 63.28125 165.871094 63.910156 165.613281 C 64.539062 165.351562 65.179688 165.121094 65.832031 164.925781 C 66.484375 164.726562 67.140625 164.5625 67.808594 164.429688 C 68.480469 164.296875 69.152344 164.195312 69.828125 164.128906 C 70.507812 164.0625 71.1875 164.027344 71.867188 164.027344 C 72.550781 164.027344 73.230469 164.0625 73.90625 164.128906 C 74.585938 164.195312 75.257812 164.296875 75.925781 164.429688 C 76.59375 164.5625 77.253906 164.726562 77.90625 164.925781 C 78.558594 165.121094 79.199219 165.351562 79.828125 165.613281 C 80.457031 165.871094 81.070312 166.164062 81.671875 166.484375 C 82.273438 166.804688 82.855469 167.15625 83.421875 167.535156 C 83.988281 167.914062 84.535156 168.316406 85.0625 168.75 C 85.589844 169.183594 86.09375 169.640625 86.574219 170.121094 C 87.054688 170.601562 87.511719 171.105469 87.945312 171.632812 C 88.378906 172.160156 88.78125 172.707031 89.160156 173.273438 C 89.539062 173.839844 89.890625 174.421875 90.210938 175.023438 C 90.53125 175.625 90.820312 176.238281 91.082031 176.867188 C 91.34375 177.496094 91.574219 178.136719 91.769531 178.789062 C 91.96875 179.441406 92.132812 180.101562 92.265625 180.769531 C 92.398438 181.4375 92.5 182.109375 92.566406 182.789062 C 92.632812 183.464844 92.664062 184.144531 92.664062 184.828125 L 92.664062 309.613281 C 92.664062 310.296875 92.632812 310.976562 92.566406 311.652344 C 92.5 312.332031 92.398438 313.003906 92.265625 313.671875 C 92.132812 314.339844 91.96875 315 91.769531 315.652344 C 91.574219 316.304688 91.34375 316.945312 91.082031 317.574219 C 90.820312 318.203125 90.53125 318.816406 90.210938 319.417969 C 89.890625 320.019531 89.539062 320.601562 89.160156 321.167969 C 88.78125 321.734375 88.378906 322.28125 87.945312 322.808594 C 87.511719 323.335938 87.054688 323.839844 86.574219 324.320312 C 86.09375 324.804688 85.589844 325.261719 85.0625 325.691406 C 84.535156 326.125 83.988281 326.53125 83.421875 326.90625 C 82.855469 327.285156 82.273438 327.636719 81.671875 327.957031 C 81.070312 328.277344 80.457031 328.570312 79.828125 328.828125 C 79.199219 329.089844 78.558594 329.320312 77.90625 329.515625 C 77.253906 329.714844 76.59375 329.878906 75.925781 330.011719 C 75.257812 330.144531 74.585938 330.246094 73.90625 330.3125 C 73.230469 330.378906 72.550781 330.414062 71.867188 330.414062 Z M 71.867188 330.414062 " fill-opacity="1" fill-rule="nonzero"/><g clip-path="url(#id4)"><path fill="#343a40" d="M 446.230469 330.414062 C 445.550781 330.414062 444.871094 330.378906 444.195312 330.3125 C 443.515625 330.246094 442.84375 330.144531 442.175781 330.011719 C 441.507812 329.878906 440.847656 329.714844 440.195312 329.515625 C 439.542969 329.320312 438.902344 329.089844 438.273438 328.828125 C 437.644531 328.570312 437.027344 328.277344 436.429688 327.957031 C 435.828125 327.636719 435.242188 327.285156 434.675781 326.90625 C 434.109375 326.53125 433.5625 326.125 433.039062 325.691406 C 432.511719 325.261719 432.007812 324.804688 431.527344 324.320312 C 431.042969 323.839844 430.585938 323.335938 430.15625 322.808594 C 429.722656 322.28125 429.316406 321.734375 428.9375 321.167969 C 428.5625 320.601562 428.210938 320.019531 427.890625 319.417969 C 427.570312 318.816406 427.277344 318.203125 427.015625 317.574219 C 426.757812 316.945312 426.527344 316.304688 426.328125 315.652344 C 426.132812 315 425.964844 314.339844 425.832031 313.671875 C 425.699219 313.003906 425.601562 312.332031 425.535156 311.652344 C 425.46875 310.976562 425.433594 310.296875 425.433594 309.613281 L 425.433594 184.828125 C 425.433594 184.144531 425.46875 183.464844 425.535156 182.789062 C 425.601562 182.109375 425.699219 181.4375 425.832031 180.769531 C 425.964844 180.101562 426.132812 179.441406 426.328125 178.789062 C 426.527344 178.136719 426.757812 177.496094 427.015625 176.867188 C 427.277344 176.238281 427.570312 175.625 427.890625 175.023438 C 428.210938 174.421875 428.5625 173.839844 428.9375 173.273438 C 429.316406 172.707031 429.722656 172.160156 430.15625 171.632812 C 430.585938 171.105469 431.042969 170.601562 431.527344 170.121094 C 432.007812 169.640625 432.511719 169.183594 433.039062 168.75 C 433.5625 168.316406 434.109375 167.914062 434.675781 167.535156 C 435.242188 167.15625 435.828125 166.804688 436.429688 166.484375 C 437.027344 166.164062 437.644531 165.871094 438.273438 165.613281 C 438.902344 165.351562 439.542969 165.121094 440.195312 164.925781 C 440.847656 164.726562 441.507812 164.5625 442.175781 164.429688 C 442.84375 164.296875 443.515625 164.195312 444.195312 164.128906 C 444.871094 164.0625 445.550781 164.027344 446.230469 164.027344 C 446.914062 164.027344 447.59375 164.0625 448.269531 164.128906 C 448.949219 164.195312 449.621094 164.296875 450.289062 164.429688 C 450.957031 164.5625 451.617188 164.726562 452.269531 164.925781 C 452.921875 165.121094 453.5625 165.351562 454.191406 165.613281 C 454.820312 165.871094 455.433594 166.164062 456.035156 166.484375 C 456.636719 166.804688 457.21875 167.15625 457.785156 167.535156 C 458.351562 167.914062 458.898438 168.316406 459.425781 168.75 C 459.953125 169.183594 460.457031 169.640625 460.9375 170.121094 C 461.421875 170.601562 461.878906 171.105469 462.308594 171.632812 C 462.742188 172.160156 463.148438 172.707031 463.523438 173.273438 C 463.902344 173.839844 464.253906 174.421875 464.574219 175.023438 C 464.894531 175.625 465.1875 176.238281 465.445312 176.867188 C 465.707031 177.496094 465.9375 178.136719 466.132812 178.789062 C 466.332031 179.441406 466.496094 180.101562 466.628906 180.769531 C 466.761719 181.4375 466.863281 182.109375 466.929688 182.789062 C 466.996094 183.464844 467.03125 184.144531 467.03125 184.828125 L 467.03125 309.613281 C 467.03125 310.296875 466.996094 310.976562 466.929688 311.652344 C 466.863281 312.332031 466.761719 313.003906 466.628906 313.671875 C 466.496094 314.339844 466.332031 315 466.132812 315.652344 C 465.9375 316.304688 465.707031 316.945312 465.445312 317.574219 C 465.1875 318.203125 464.894531 318.816406 464.574219 319.417969 C 464.253906 320.019531 463.902344 320.601562 463.523438 321.167969 C 463.148438 321.734375 462.742188 322.28125 462.308594 322.808594 C 461.878906 323.335938 461.421875 323.839844 460.9375 324.320312 C 460.457031 324.804688 459.953125 325.261719 459.425781 325.691406 C 458.898438 326.125 458.351562 326.53125 457.785156 326.90625 C 457.21875 327.285156 456.636719 327.636719 456.035156 327.957031 C 455.433594 328.277344 454.820312 328.570312 454.191406 328.828125 C 453.5625 329.089844 452.921875 329.320312 452.269531 329.515625 C 451.617188 329.714844 450.957031 329.878906 450.289062 330.011719 C 449.621094 330.144531 448.949219 330.246094 448.269531 330.3125 C 447.59375 330.378906 446.914062 330.414062 446.230469 330.414062 Z M 446.230469 330.414062 " fill-opacity="1" fill-rule="nonzero"/></g><path fill="#343a40" d="M 259.050781 205.625 C 258.367188 205.625 257.6875 205.589844 257.011719 205.523438 C 256.332031 205.457031 255.660156 205.359375 254.992188 205.226562 C 254.324219 205.09375 253.664062 204.925781 253.011719 204.730469 C 252.359375 204.53125 251.71875 204.300781 251.089844 204.042969 C 250.460938 203.78125 249.847656 203.488281 249.246094 203.167969 C 248.644531 202.847656 248.0625 202.5 247.496094 202.121094 C 246.929688 201.742188 246.382812 201.335938 245.855469 200.902344 C 245.328125 200.472656 244.824219 200.015625 244.34375 199.535156 C 243.863281 199.050781 243.40625 198.546875 242.972656 198.019531 C 242.539062 197.496094 242.136719 196.949219 241.757812 196.382812 C 241.378906 195.816406 241.027344 195.230469 240.707031 194.632812 C 240.386719 194.03125 240.097656 193.414062 239.835938 192.785156 C 239.574219 192.15625 239.34375 191.515625 239.148438 190.863281 C 238.949219 190.210938 238.785156 189.550781 238.652344 188.882812 C 238.519531 188.214844 238.417969 187.542969 238.351562 186.867188 C 238.285156 186.1875 238.253906 185.507812 238.253906 184.828125 L 238.253906 60.039062 C 238.253906 59.359375 238.285156 58.679688 238.351562 58 C 238.417969 57.324219 238.519531 56.648438 238.652344 55.980469 C 238.785156 55.3125 238.949219 54.652344 239.148438 54 C 239.34375 53.351562 239.574219 52.710938 239.835938 52.078125 C 240.097656 51.449219 240.386719 50.835938 240.707031 50.234375 C 241.027344 49.632812 241.378906 49.050781 241.757812 48.484375 C 242.136719 47.917969 242.539062 47.371094 242.972656 46.84375 C 243.40625 46.316406 243.863281 45.8125 244.34375 45.332031 C 244.824219 44.851562 245.328125 44.394531 245.855469 43.960938 C 246.382812 43.53125 246.929688 43.125 247.496094 42.746094 C 248.0625 42.367188 248.644531 42.019531 249.246094 41.695312 C 249.847656 41.375 250.460938 41.085938 251.089844 40.824219 C 251.71875 40.5625 252.359375 40.335938 253.011719 40.136719 C 253.664062 39.9375 254.324219 39.773438 254.992188 39.640625 C 255.660156 39.507812 256.332031 39.40625 257.011719 39.339844 C 257.6875 39.273438 258.367188 39.242188 259.050781 39.242188 C 259.730469 39.242188 260.410156 39.273438 261.089844 39.339844 C 261.765625 39.40625 262.4375 39.507812 263.109375 39.640625 C 263.777344 39.773438 264.433594 39.9375 265.085938 40.136719 C 265.738281 40.335938 266.378906 40.5625 267.007812 40.824219 C 267.636719 41.085938 268.253906 41.375 268.855469 41.695312 C 269.453125 42.019531 270.039062 42.367188 270.605469 42.746094 C 271.171875 43.125 271.71875 43.53125 272.242188 43.960938 C 272.769531 44.394531 273.273438 44.851562 273.757812 45.332031 C 274.238281 45.8125 274.695312 46.316406 275.128906 46.84375 C 275.558594 47.371094 275.964844 47.917969 276.34375 48.484375 C 276.722656 49.050781 277.070312 49.632812 277.390625 50.234375 C 277.714844 50.835938 278.003906 51.449219 278.265625 52.078125 C 278.527344 52.710938 278.753906 53.351562 278.953125 54 C 279.148438 54.652344 279.316406 55.3125 279.449219 55.980469 C 279.582031 56.648438 279.679688 57.324219 279.746094 58 C 279.816406 58.679688 279.847656 59.359375 279.847656 60.039062 L 279.847656 184.828125 C 279.847656 185.507812 279.816406 186.1875 279.746094 186.867188 C 279.679688 187.542969 279.582031 188.214844 279.449219 188.882812 C 279.316406 189.550781 279.148438 190.210938 278.953125 190.863281 C 278.753906 191.515625 278.527344 192.15625 278.265625 192.785156 C 278.003906 193.414062 277.714844 194.03125 277.390625 194.632812 C 277.070312 195.230469 276.722656 195.816406 276.34375 196.382812 C 275.964844 196.949219 275.558594 197.496094 275.128906 198.019531 C 274.695312 198.546875 274.238281 199.050781 273.757812 199.535156 C 273.273438 200.015625 272.769531 200.472656 272.242188 200.902344 C 271.71875 201.335938 271.171875 201.742188 270.605469 202.121094 C 270.039062 202.5 269.453125 202.847656 268.855469 203.167969 C 268.253906 203.488281 267.636719 203.78125 267.007812 204.042969 C 266.378906 204.300781 265.738281 204.53125 265.085938 204.730469 C 264.433594 204.925781 263.777344 205.09375 263.109375 205.226562 C 262.4375 205.359375 261.765625 205.457031 261.089844 205.523438 C 260.410156 205.589844 259.730469 205.625 259.050781 205.625 Z M 259.050781 205.625 " fill-opacity="1" fill-rule="nonzero"/><g clip-path="url(#id5)"><path fill="#343a40" d="M 259.050781 455.199219 C 258.367188 455.199219 257.6875 455.167969 257.011719 455.101562 C 256.332031 455.035156 255.660156 454.933594 254.992188 454.800781 C 254.324219 454.667969 253.664062 454.503906 253.011719 454.304688 C 252.359375 454.109375 251.71875 453.878906 251.089844 453.617188 C 250.460938 453.355469 249.847656 453.066406 249.246094 452.746094 C 248.644531 452.425781 248.0625 452.074219 247.496094 451.695312 C 246.929688 451.316406 246.382812 450.914062 245.855469 450.480469 C 245.328125 450.046875 244.824219 449.589844 244.34375 449.109375 C 243.863281 448.628906 243.40625 448.125 242.972656 447.597656 C 242.539062 447.070312 242.136719 446.523438 241.757812 445.957031 C 241.378906 445.390625 241.027344 444.808594 240.707031 444.207031 C 240.386719 443.605469 240.097656 442.992188 239.835938 442.363281 C 239.574219 441.734375 239.34375 441.09375 239.148438 440.441406 C 238.949219 439.789062 238.785156 439.128906 238.652344 438.460938 C 238.519531 437.792969 238.417969 437.121094 238.351562 436.441406 C 238.285156 435.761719 238.253906 435.085938 238.253906 434.402344 L 238.253906 309.613281 C 238.253906 308.933594 238.285156 308.253906 238.351562 307.578125 C 238.417969 306.898438 238.519531 306.226562 238.652344 305.558594 C 238.785156 304.890625 238.949219 304.230469 239.148438 303.578125 C 239.34375 302.925781 239.574219 302.285156 239.835938 301.65625 C 240.097656 301.027344 240.386719 300.410156 240.707031 299.8125 C 241.027344 299.210938 241.378906 298.625 241.757812 298.058594 C 242.136719 297.492188 242.539062 296.949219 242.972656 296.421875 C 243.40625 295.894531 243.863281 295.390625 244.34375 294.910156 C 244.824219 294.425781 245.328125 293.96875 245.855469 293.539062 C 246.382812 293.105469 246.929688 292.699219 247.496094 292.320312 C 248.0625 291.945312 248.644531 291.59375 249.246094 291.273438 C 249.847656 290.953125 250.460938 290.660156 251.089844 290.398438 C 251.71875 290.140625 252.359375 289.910156 253.011719 289.710938 C 253.664062 289.515625 254.324219 289.347656 254.992188 289.214844 C 255.660156 289.082031 256.332031 288.984375 257.011719 288.917969 C 257.6875 288.851562 258.367188 288.816406 259.050781 288.816406 C 259.730469 288.816406 260.410156 288.851562 261.089844 288.917969 C 261.765625 288.984375 262.4375 289.082031 263.109375 289.214844 C 263.777344 289.347656 264.433594 289.515625 265.085938 289.710938 C 265.738281 289.910156 266.378906 290.140625 267.007812 290.398438 C 267.636719 290.660156 268.253906 290.953125 268.855469 291.273438 C 269.453125 291.59375 270.039062 291.945312 270.605469 292.320312 C 271.171875 292.699219 271.71875 293.105469 272.242188 293.539062 C 272.769531 293.96875 273.273438 294.425781 273.757812 294.910156 C 274.238281 295.390625 274.695312 295.894531 275.128906 296.421875 C 275.558594 296.945312 275.964844 297.492188 276.34375 298.058594 C 276.722656 298.625 277.070312 299.210938 277.390625 299.8125 C 277.714844 300.410156 278.003906 301.027344 278.265625 301.65625 C 278.527344 302.285156 278.753906 302.925781 278.953125 303.578125 C 279.148438 304.230469 279.316406 304.890625 279.449219 305.558594 C 279.582031 306.226562 279.679688 306.898438 279.746094 307.578125 C 279.816406 308.253906 279.847656 308.933594 279.847656 309.613281 L 279.847656 434.402344 C 279.847656 435.085938 279.816406 435.761719 279.746094 436.441406 C 279.679688 437.121094 279.582031 437.792969 279.449219 438.460938 C 279.316406 439.128906 279.148438 439.789062 278.953125 440.441406 C 278.753906 441.09375 278.527344 441.734375 278.265625 442.363281 C 278.003906 442.992188 277.714844 443.605469 277.390625 444.207031 C 277.070312 444.808594 276.722656 445.390625 276.34375 445.957031 C 275.964844 446.523438 275.558594 447.070312 275.128906 447.597656 C 274.695312 448.125 274.238281 448.628906 273.757812 449.109375 C 273.273438 449.589844 272.769531 450.046875 272.242188 450.480469 C 271.71875 450.910156 271.171875 451.316406 270.605469 451.695312 C 270.039062 452.074219 269.453125 452.425781 268.855469 452.746094 C 268.253906 453.066406 267.636719 453.355469 267.007812 453.617188 C 266.378906 453.878906 265.738281 454.109375 265.085938 454.304688 C 264.433594 454.503906 263.777344 454.667969 263.109375 454.800781 C 262.4375 454.933594 261.765625 455.035156 261.089844 455.101562 C 260.410156 455.167969 259.730469 455.199219 259.050781 455.199219 Z M 259.050781 455.199219 " fill-opacity="1" fill-rule="nonzero"/></g></svg>